#define iconify_width 8
#define iconify_height 8
static unsigned char iconify_bits[] = {
   0x18, 0x18, 0x18, 0x18, 0xdb, 0x7e, 0x3c, 0x18 };
